<svg width="26" height="26" viewBox="0 0 26 26" fill="none" xmlns="http://www.w3.org/2000/svg">
<path d="M23.6226 10.9599H22.75V10.9166H13V15.0833H19.1225C18.2293 17.5088 15.8291 19.25 13 19.25C9.41038 19.25 6.5 16.4515 6.5 13C6.5 9.54842 9.41038 6.74998 13 6.74998C14.657 6.74998 16.1644 7.35102 17.3122 8.33279L20.3764 5.38644C18.4416 3.65258 15.8535 2.58331 13 2.58331C7.0173 2.58331 2.16667 7.24738 2.16667 13C2.16667 18.7526 7.0173 23.4166 13 23.4166C18.9827 23.4166 23.8333 18.7526 23.8333 13C23.8333 12.3015 23.7586 11.6198 23.6226 10.9599Z" fill="#FFC107"/>
<path d="M3.41576 8.15154L6.97505 10.6614C7.93813 8.36873 10.2705 6.74998 13 6.74998C14.657 6.74998 16.1644 7.35102 17.3122 8.33279L20.3764 5.38644C18.4416 3.65258 15.8535 2.58331 13 2.58331C8.83892 2.58331 5.23034 4.84217 3.41576 8.15154Z" fill="#FF3D00"/>
<path d="M13 23.4167C15.7982 23.4167 18.3408 22.387 20.2632 20.7125L16.9103 17.9844C15.8226 18.7766 14.4706 19.25 13 19.25C10.1822 19.25 7.7897 17.5224 6.88837 15.1115L3.35562 17.7286C5.14854 21.1021 8.78962 23.4167 13 23.4167Z" fill="#4CAF50"/>
<path d="M23.6226 10.9599H22.75V10.9167H13V15.0834H19.1225C18.6935 16.2485 17.914 17.2531 16.9087 17.9849L16.9103 17.9839L20.2632 20.712C20.026 20.9193 23.8333 18.2084 23.8333 13C23.8333 12.3016 23.7586 11.6198 23.6226 10.9599Z" fill="#1976D2"/>
</svg>
