<svg width="18" height="18" viewBox="0 0 18 18" fill="none" xmlns="http://www.w3.org/2000/svg">
<path d="M6.92749 0.75C3.18478 0.75 0.130615 3.7363 0.130615 7.39583C0.130615 11.0554 3.18478 14.0417 6.92749 14.0417C8.46178 14.0417 9.87542 13.5343 11.0153 12.6899L15.4053 16.9814C15.4917 17.0694 15.5951 17.1397 15.7096 17.188C15.8241 17.2364 15.9473 17.262 16.0721 17.2632C16.1968 17.2645 16.3205 17.2414 16.436 17.1953C16.5515 17.1492 16.6564 17.081 16.7446 16.9948C16.8328 16.9085 16.9025 16.806 16.9496 16.693C16.9968 16.5801 17.0204 16.4592 17.0192 16.3372C17.0179 16.2152 16.9917 16.0948 16.9423 15.9828C16.8928 15.8709 16.8209 15.7697 16.731 15.6852L12.3419 11.3928C13.2055 10.2783 13.7244 8.89603 13.7244 7.39583C13.7244 3.7363 10.6702 0.75 6.92749 0.75ZM6.92749 2.58333C9.65687 2.58333 11.8494 4.7271 11.8494 7.39583C11.8494 8.6772 11.3403 9.83444 10.5127 10.6946C10.4321 10.7516 10.3614 10.8208 10.303 10.8996C9.42316 11.7099 8.23892 12.2083 6.92749 12.2083C4.19811 12.2083 2.00562 10.0646 2.00562 7.39583C2.00562 4.7271 4.19811 2.58333 6.92749 2.58333Z" fill="#1E1E1E" fill-opacity="0.7"/>
</svg>
