<svg width="24" height="24" viewBox="0 0 24 24" fill="none" xmlns="http://www.w3.org/2000/svg">
<path d="M8.24995 22L7.84995 18.8C7.63328 18.7167 7.42912 18.6167 7.23745 18.5C7.04578 18.3833 6.85828 18.2583 6.67495 18.125L3.69995 19.375L0.949951 14.625L3.52495 12.675C3.50828 12.5583 3.49995 12.4458 3.49995 12.3375V11.6625C3.49995 11.5542 3.50828 11.4417 3.52495 11.325L0.949951 9.375L3.69995 4.625L6.67495 5.875C6.85828 5.74167 7.04995 5.61667 7.24995 5.5C7.44995 5.38333 7.64995 5.28333 7.84995 5.2L8.24995 2H13.75L14.15 5.2C14.3666 5.28333 14.5708 5.38333 14.7625 5.5C14.9541 5.61667 15.1416 5.74167 15.325 5.875L18.3 4.625L21.05 9.375L18.475 11.325C18.4916 11.4417 18.5 11.5542 18.5 11.6625V12.3375C18.5 12.4458 18.4833 12.5583 18.45 12.675L21.025 14.625L18.275 19.375L15.325 18.125C15.1416 18.2583 14.95 18.3833 14.75 18.5C14.55 18.6167 14.35 18.7167 14.15 18.8L13.75 22H8.24995ZM9.99995 20H11.975L12.325 17.35C12.8416 17.2167 13.3208 17.0208 13.7625 16.7625C14.2041 16.5042 14.6083 16.1917 14.975 15.825L17.45 16.85L18.425 15.15L16.275 13.525C16.3583 13.2917 16.4166 13.0458 16.45 12.7875C16.4833 12.5292 16.5 12.2667 16.5 12C16.5 11.7333 16.4833 11.4708 16.45 11.2125C16.4166 10.9542 16.3583 10.7083 16.275 10.475L18.425 8.85L17.45 7.15L14.975 8.2C14.6083 7.81667 14.2041 7.49583 13.7625 7.2375C13.3208 6.97917 12.8416 6.78333 12.325 6.65L12 4H10.025L9.67495 6.65C9.15828 6.78333 8.67912 6.97917 8.23745 7.2375C7.79578 7.49583 7.39162 7.80833 7.02495 8.175L4.54995 7.15L3.57495 8.85L5.72495 10.45C5.64162 10.7 5.58328 10.95 5.54995 11.2C5.51662 11.45 5.49995 11.7167 5.49995 12C5.49995 12.2667 5.51662 12.525 5.54995 12.775C5.58328 13.025 5.64162 13.275 5.72495 13.525L3.57495 15.15L4.54995 16.85L7.02495 15.8C7.39162 16.1833 7.79578 16.5042 8.23745 16.7625C8.67912 17.0208 9.15828 17.2167 9.67495 17.35L9.99995 20ZM11.05 15.5C12.0166 15.5 12.8416 15.1583 13.525 14.475C14.2083 13.7917 14.55 12.9667 14.55 12C14.55 11.0333 14.2083 10.2083 13.525 9.525C12.8416 8.84167 12.0166 8.5 11.05 8.5C10.0666 8.5 9.23745 8.84167 8.56245 9.525C7.88745 10.2083 7.54995 11.0333 7.54995 12C7.54995 12.9667 7.88745 13.7917 8.56245 14.475C9.23745 15.1583 10.0666 15.5 11.05 15.5Z" fill="#333333" fill-opacity="0.75"/>
</svg>
