<svg width="126" height="36" viewBox="0 0 126 36" fill="none" xmlns="http://www.w3.org/2000/svg">
<path d="M7.728 26.168C5.76 26.168 4.144 25.704 2.88 24.776C1.616 23.832 0.936 22.488 0.84 20.744H5.856C5.904 21.336 6.08 21.768 6.384 22.04C6.688 22.312 7.08 22.448 7.56 22.448C7.992 22.448 8.344 22.344 8.616 22.136C8.904 21.912 9.048 21.608 9.048 21.224C9.048 20.728 8.816 20.344 8.352 20.072C7.888 19.8 7.136 19.496 6.096 19.16C4.992 18.792 4.096 18.44 3.408 18.104C2.736 17.752 2.144 17.248 1.632 16.592C1.136 15.92 0.888 15.048 0.888 13.976C0.888 12.888 1.16 11.96 1.704 11.192C2.248 10.408 3 9.816 3.96 9.416C4.92 9.016 6.008 8.816 7.224 8.816C9.192 8.816 10.76 9.28 11.928 10.208C13.112 11.12 13.744 12.408 13.824 14.072H8.712C8.696 13.56 8.536 13.176 8.232 12.92C7.944 12.664 7.568 12.536 7.104 12.536C6.752 12.536 6.464 12.64 6.24 12.848C6.016 13.056 5.904 13.352 5.904 13.736C5.904 14.056 6.024 14.336 6.264 14.576C6.52 14.8 6.832 15 7.2 15.176C7.568 15.336 8.112 15.544 8.832 15.8C9.904 16.168 10.784 16.536 11.472 16.904C12.176 17.256 12.776 17.76 13.272 18.416C13.784 19.056 14.04 19.872 14.04 20.864C14.04 21.872 13.784 22.776 13.272 23.576C12.776 24.376 12.048 25.008 11.088 25.472C10.144 25.936 9.024 26.168 7.728 26.168ZM24.1708 21.992V26H22.1308C18.6908 26 16.9708 24.296 16.9708 20.888V16.448H15.3148V12.536H16.9708V9.272H21.6988V12.536H24.1468V16.448H21.6988V20.96C21.6988 21.328 21.7788 21.592 21.9388 21.752C22.1148 21.912 22.4028 21.992 22.8028 21.992H24.1708ZM40.1044 12.536V26H35.3764V24.08C34.9764 24.688 34.4244 25.184 33.7204 25.568C33.0164 25.936 32.2084 26.12 31.2964 26.12C29.7284 26.12 28.4884 25.608 27.5764 24.584C26.6804 23.544 26.2324 22.136 26.2324 20.36V12.536H30.9124V19.76C30.9124 20.528 31.1124 21.136 31.5124 21.584C31.9284 22.016 32.4724 22.232 33.1444 22.232C33.8324 22.232 34.3764 22.016 34.7764 21.584C35.1764 21.136 35.3764 20.528 35.3764 19.76V12.536H40.1044ZM42.0135 19.256C42.0135 17.864 42.2615 16.648 42.7575 15.608C43.2695 14.568 43.9655 13.768 44.8455 13.208C45.7255 12.648 46.7015 12.368 47.7735 12.368C48.6375 12.368 49.4055 12.552 50.0775 12.92C50.7655 13.272 51.3015 13.76 51.6855 14.384V8.24H56.4135V26H51.6855V24.128C51.3175 24.752 50.7975 25.248 50.1255 25.616C49.4535 25.984 48.6615 26.168 47.7495 26.168C46.6775 26.168 45.7015 25.888 44.8215 25.328C43.9575 24.768 43.2695 23.968 42.7575 22.928C42.2615 21.872 42.0135 20.648 42.0135 19.256ZM51.7095 19.256C51.7095 18.392 51.4695 17.712 50.9895 17.216C50.5255 16.72 49.9495 16.472 49.2615 16.472C48.5575 16.472 47.9735 16.72 47.5095 17.216C47.0455 17.696 46.8135 18.376 46.8135 19.256C46.8135 20.12 47.0455 20.808 47.5095 21.32C47.9735 21.816 48.5575 22.064 49.2615 22.064C49.9495 22.064 50.5255 21.816 50.9895 21.32C51.4695 20.824 51.7095 20.136 51.7095 19.256ZM73.59 12.536L65.046 32.408H59.934L63.15 25.424L57.63 12.536H62.862L65.694 20.168L68.43 12.536H73.59Z" fill="#318CE7"/>
<path d="M80.048 22.4H85.304V26H75.344V9.08H80.048V22.4ZM89.5091 11.288C88.6771 11.288 88.0051 11.064 87.4931 10.616C86.9971 10.152 86.7491 9.576 86.7491 8.888C86.7491 8.184 86.9971 7.6 87.4931 7.136C88.0051 6.672 88.6771 6.44 89.5091 6.44C90.3251 6.44 90.9811 6.672 91.4771 7.136C91.9891 7.6 92.2451 8.184 92.2451 8.888C92.2451 9.576 91.9891 10.152 91.4771 10.616C90.9811 11.064 90.3251 11.288 89.5091 11.288ZM91.8371 12.536V26H87.1331V12.536H91.8371ZM103.324 12.416C104.876 12.416 106.108 12.936 107.02 13.976C107.932 15 108.388 16.392 108.388 18.152V26H103.684V18.776C103.684 18.008 103.484 17.408 103.084 16.976C102.684 16.528 102.148 16.304 101.476 16.304C100.772 16.304 100.22 16.528 99.8199 16.976C99.4199 17.408 99.2199 18.008 99.2199 18.776V26H94.5159V12.536H99.2199V14.456C99.6359 13.848 100.196 13.36 100.9 12.992C101.604 12.608 102.412 12.416 103.324 12.416ZM119.393 26L115.673 20.48V26H110.969V8.24H115.673V17.816L119.393 12.536H125.033L119.729 19.304L125.129 26H119.393Z" fill="black"/>
</svg>
